<svg xmlns="http://www.w3.org/2000/svg" width="1341.512" height="1227.492" viewBox="0 0 1341.512 1227.492">
  <g id="Group_8" data-name="Group 8" transform="translate(-863.623 -94.259)" opacity="0.201">
    <path id="Path_11" data-name="Path 11" d="M874.9,113.955c13.755,13.44,27.611,26.292,41.911,39.605Z" transform="translate(225.224 393.252)" fill="#fdfdfd"/>
    <path id="Path_12" data-name="Path 12" d="M1151.155,278.066,976.338,108.176a49.2,49.2,0,0,0-69.627,1.048l-.211.231a49.188,49.188,0,0,0,1.089,69.566L1082.638,348.68a49.218,49.218,0,0,0,70.071-1.593h0A49.2,49.2,0,0,0,1151.155,278.066Z" transform="translate(579.134 0)" fill="#fdfdfd"/>
    <path id="Path_13" data-name="Path 13" d="M949.286,252.372l142.235,7.716a53.647,53.647,0,0,0,54.848-40.046l6.457-24.782c9.456-36.271-20.232-70.8-57.49-66.9L946.643,143.851a53.742,53.742,0,0,0-48.077,52.709l-.02,1.551A53.58,53.58,0,0,0,949.286,252.372Z" transform="translate(697.182 674.768)" fill="#fdfdfd"/>
    <path id="Path_14" data-name="Path 14" d="M1253.2,524.165l2.2-.063c104.558-111.5,208.153-221.949,305.249-325.921a53.371,53.371,0,0,0-1.867-74.745h0a53.292,53.292,0,0,0-76.066,1.824c-194.084,207.5-401.44,425.029-589.551,626.138a53.262,53.262,0,0,0,1.594,74.388l1.8,1.761a53.282,53.282,0,0,0,76.275-1.677c52.624-56.378,106.362-113.784,160.412-171.462l-.65.021Z" transform="translate(303.115 281.623)" fill="#fdfdfd"/>
    <path id="Path_15" data-name="Path 15" d="M890.908,258.519l.65-.021q60.983-65.069,122.15-130.306l-2.2.063" transform="translate(544.805 677.532)" fill="#fdfdfd"/>
    <g id="Group_3" data-name="Group 3" transform="translate(1923.401 534.188)">
      <path id="Path_16" data-name="Path 16" d="M1007,560.108q90.1-95.135,175.068-185.07a50.538,50.538,0,0,0-1.614-71.118c-60.09-57.909-119.992-115.021-180.228-174.125a50.621,50.621,0,0,0-71.81.776h0a50.542,50.542,0,0,0,1.134,71.474c35.411,34.343,70.593,68.455,108.1,104.853a50.694,50.694,0,0,1,1.049,71.663Q983.41,435.326,931.937,488.172a50.477,50.477,0,0,0,1.027,71.453l2.055,2.013A50.589,50.589,0,0,0,1007,560.108Z" transform="translate(-914.169 -115.242)" fill="#fdfdfd"/>
    </g>
    <path id="Path_17" data-name="Path 17" d="M1069.472,128.46c-64.952,67.407-131.1,135.547-193.183,199.285a44.42,44.42,0,0,0,.84,62.962c63,61.138,127.579,123.638,191.4,185.468a44.536,44.536,0,0,0,63.486-1.552l14.844-15.83a44.551,44.551,0,0,0-1.93-62.9c-38.6-36.355-78.247-73.864-118-111.289a44.632,44.632,0,0,1-1.468-63.444c40.3-41.723,80.217-82.691,117.977-121.542a44.507,44.507,0,0,0-1.405-63.4h0q-5.094-4.717-10.126-9.414A44.508,44.508,0,0,0,1069.472,128.46Z" transform="translate(0 410.595)" fill="#fdfdfd"/>
    <path id="Path_18" data-name="Path 18" d="M1011.808,260.442v-.021a58.388,58.388,0,0,0,8.869-90.931L980.8,130.828a58.412,58.412,0,0,0-71.684-7.527h0a58.4,58.4,0,0,0-9.624,91.392l39.878,38.662A58.424,58.424,0,0,0,1011.808,260.442Z" transform="translate(361.824 401.496)" fill="#fdfdfd"/>
    <path id="Path_19" data-name="Path 19" d="M999.658,205.206l-.462-24.719a43.979,43.979,0,0,0-61.536-39.521h0a43.938,43.938,0,0,0-26.418,40.989l.168,12.181a42.71,42.71,0,0,1-.168,4.633L891.6,415.183c-2.914,32.016,28.368,56.232,58.642,45.392l24.155-8.659a43.976,43.976,0,0,0,29.142-42.247Z" transform="translate(554.767 858.551)" fill="#fdfdfd"/>
  </g>
</svg>
