<svg xmlns="http://www.w3.org/2000/svg" width="25.217" height="24.679" viewBox="0 0 25.217 24.679">
  <path id="github-brands" d="M8.435,27.872c0,.1-.117.184-.264.184-.168.015-.285-.066-.285-.184,0-.1.117-.184.264-.184C8.3,27.673,8.435,27.754,8.435,27.872Zm-1.581-.23c-.036.1.066.219.219.25a.238.238,0,0,0,.315-.1c.031-.1-.066-.219-.219-.265a.261.261,0,0,0-.315.117ZM9.1,27.555c-.147.036-.249.133-.234.25.015.1.147.168.3.133s.249-.133.234-.235S9.248,27.54,9.1,27.555ZM12.446,8A12.214,12.214,0,0,0,0,20.452,12.791,12.791,0,0,0,8.618,32.659c.651.117.88-.286.88-.617,0-.316-.015-2.062-.015-3.133,0,0-3.559.765-4.306-1.521,0,0-.58-1.485-1.413-1.868,0,0-1.164-.8.081-.786A2.682,2.682,0,0,1,5.806,26.05a2.682,2.682,0,0,0,3.706,1.067,2.84,2.84,0,0,1,.813-1.72c-2.842-.316-5.709-.73-5.709-5.639a3.875,3.875,0,0,1,1.2-3.006,4.838,4.838,0,0,1,.132-3.465c1.063-.332,3.508,1.378,3.508,1.378a11.968,11.968,0,0,1,6.386,0s2.445-1.715,3.508-1.378a4.836,4.836,0,0,1,.132,3.465,3.973,3.973,0,0,1,1.312,3.006c0,4.925-2.995,5.318-5.837,5.639a3.024,3.024,0,0,1,.864,2.368c0,1.72-.015,3.848-.015,4.266,0,.332.234.735.88.617a12.673,12.673,0,0,0,8.531-12.2A12.488,12.488,0,0,0,12.446,8Zm-7.5,17.6c-.066.051-.051.168.036.265.081.082.2.117.264.051.066-.051.051-.168-.036-.265C5.125,25.57,5.008,25.535,4.942,25.6Zm-.549-.413c-.036.066.015.148.117.2a.151.151,0,0,0,.219-.036c.036-.066-.015-.148-.117-.2C4.51,25.121,4.428,25.136,4.393,25.187ZM6.04,27c-.081.066-.051.219.066.316.117.117.264.133.33.051.066-.066.036-.219-.066-.316C6.259,26.938,6.106,26.923,6.04,27Zm-.58-.75c-.081.051-.081.184,0,.3s.219.168.285.117a.233.233,0,0,0,0-.316c-.071-.117-.2-.168-.285-.1Z" transform="translate(0 -8)" fill="#fff"/>
</svg>
