<svg xmlns="http://www.w3.org/2000/svg" width="24.238" height="24.233" viewBox="0 0 24.238 24.233">
  <path id="instagram-brands" d="M12.047,37.728a6.213,6.213,0,1,0,6.213,6.213A6.2,6.2,0,0,0,12.047,37.728Zm0,10.252a4.039,4.039,0,1,1,4.039-4.039,4.047,4.047,0,0,1-4.039,4.039Zm7.916-10.506a1.449,1.449,0,1,1-1.449-1.449A1.446,1.446,0,0,1,19.963,37.474Zm4.115,1.471a7.172,7.172,0,0,0-1.957-5.077,7.219,7.219,0,0,0-5.077-1.957c-2-.114-8-.114-10,0a7.208,7.208,0,0,0-5.077,1.952A7.2,7.2,0,0,0,.01,38.94c-.114,2-.114,8,0,10a7.172,7.172,0,0,0,1.957,5.077,7.228,7.228,0,0,0,5.077,1.957c2,.114,8,.114,10,0a7.172,7.172,0,0,0,5.077-1.957,7.219,7.219,0,0,0,1.957-5.077C24.192,46.937,24.192,40.946,24.078,38.945ZM21.493,51.085a4.089,4.089,0,0,1-2.3,2.3c-1.6.633-5.38.487-7.143.487s-5.553.141-7.143-.487a4.089,4.089,0,0,1-2.3-2.3c-.633-1.6-.487-5.38-.487-7.143S1.973,38.388,2.6,36.8a4.089,4.089,0,0,1,2.3-2.3c1.6-.633,5.38-.487,7.143-.487s5.553-.141,7.143.487a4.089,4.089,0,0,1,2.3,2.3c.633,1.6.487,5.38.487,7.143S22.126,49.495,21.493,51.085Z" transform="translate(0.075 -31.825)" fill="#fff"/>
</svg>
