<svg xmlns="http://www.w3.org/2000/svg" width="63.984" height="58.546" viewBox="0 0 63.984 58.546">
  <g id="Group_4" data-name="Group 4" transform="translate(-863.623 -94.259)">
    <path id="Path_11" data-name="Path 11" d="M874.9,113.955c.656.641,1.317,1.254,2,1.889Z" fill="none"/>
    <path id="Path_12" data-name="Path 12" d="M904.959,103.026l-8.338-8.1a2.347,2.347,0,0,0-3.321.05l-.01.011a2.346,2.346,0,0,0,.052,3.318l8.349,8.092a2.347,2.347,0,0,0,3.342-.076h0A2.347,2.347,0,0,0,904.959,103.026Z" fill="#adb9de"/>
    <path id="Path_13" data-name="Path 13" d="M900.961,133.984l6.784.368a2.559,2.559,0,0,0,2.616-1.91l.308-1.182a2.559,2.559,0,0,0-2.742-3.191l-7.092.739a2.563,2.563,0,0,0-2.293,2.514v.074A2.556,2.556,0,0,0,900.961,133.984Z" fill="#7572b1"/>
    <path id="Path_14" data-name="Path 14" d="M896.661,128.2l.1,0c4.987-5.318,9.928-10.586,14.559-15.545a2.546,2.546,0,0,0-.089-3.565h0a2.542,2.542,0,0,0-3.628.087c-9.257,9.9-19.147,20.272-28.119,29.864a2.54,2.54,0,0,0,.076,3.548l.086.084a2.541,2.541,0,0,0,3.638-.08c2.51-2.689,5.073-5.427,7.651-8.178h-.031Z" fill="#7572b1"/>
    <path id="Path_15" data-name="Path 15" d="M890.909,134.409h.031l5.826-6.215-.1,0" fill="#7472b1"/>
    <g id="Group_3" data-name="Group 3">
      <path id="Path_16" data-name="Path 16" d="M918.6,136.46q4.3-4.538,8.35-8.827a2.41,2.41,0,0,0-.077-3.392c-2.866-2.762-5.723-5.486-8.6-8.305a2.414,2.414,0,0,0-3.425.037h0a2.411,2.411,0,0,0,.054,3.409l5.156,5a2.418,2.418,0,0,1,.05,3.418l-5.092,5.228a2.408,2.408,0,0,0,.049,3.408l.1.1A2.413,2.413,0,0,0,918.6,136.46Z" fill="#9885bd"/>
    </g>
    <path id="Path_17" data-name="Path 17" d="M873.441,115.474c-3.1,3.215-6.253,6.465-9.214,9.5a2.119,2.119,0,0,0,.04,3c3,2.916,6.085,5.9,9.129,8.846a2.124,2.124,0,0,0,3.028-.074l.708-.755a2.125,2.125,0,0,0-.092-3c-1.841-1.734-3.732-3.523-5.628-5.308a2.129,2.129,0,0,1-.07-3.026c1.922-1.99,3.826-3.944,5.627-5.8a2.123,2.123,0,0,0-.067-3.024h0l-.483-.449A2.123,2.123,0,0,0,873.441,115.474Z" fill="#adb9de"/>
    <path id="Path_18" data-name="Path 18" d="M887.948,121.335h0a2.785,2.785,0,0,0,.423-4.337l-1.9-1.844a2.786,2.786,0,0,0-3.419-.359h0a2.785,2.785,0,0,0-.459,4.359l1.9,1.844A2.787,2.787,0,0,0,887.948,121.335Z" fill="#adb9de"/>
    <path id="Path_19" data-name="Path 19" d="M896.571,140.5l-.022-1.179a2.1,2.1,0,0,0-2.935-1.885h0a2.1,2.1,0,0,0-1.26,1.955l.008.581a2.041,2.041,0,0,1-.008.221l-.937,10.322a2.1,2.1,0,0,0,2.8,2.165l1.152-.413a2.1,2.1,0,0,0,1.39-2.015Z" fill="#7572b1"/>
  </g>
</svg>
