<svg xmlns="http://www.w3.org/2000/svg" width="22.414" height="18" viewBox="0 0 22.414 18">
  <path id="angle-double-right-solid" d="M35.971,105.906l-7.648,7.648a1.344,1.344,0,0,1-1.906,0l-1.271-1.271a1.344,1.344,0,0,1,0-1.906l5.421-5.421-5.421-5.421a1.344,1.344,0,0,1,0-1.906l1.265-1.282a1.344,1.344,0,0,1,1.906,0l7.648,7.648A1.346,1.346,0,0,1,35.971,105.906Zm10.8-1.912L39.12,96.346a1.344,1.344,0,0,0-1.906,0l-1.271,1.271a1.344,1.344,0,0,0,0,1.906l5.421,5.421-5.421,5.421a1.344,1.344,0,0,0,0,1.906l1.271,1.271a1.344,1.344,0,0,0,1.906,0l7.648-7.648A1.337,1.337,0,0,0,46.768,103.994Z" transform="translate(-24.75 -95.95)" fill="#fff"/>
</svg>
